<?xml version="1.0" encoding="utf-8"?>
<!-- Generator: Adobe Illustrator 17.0.1, SVG Export Plug-In . SVG Version: 6.00 Build 0)  -->
<!DOCTYPE svg PUBLIC "-//W3C//DTD SVG 1.1//EN" "http://www.w3.org/Graphics/SVG/1.1/DTD/svg11.dtd">
<svg version="1.1" id="Group_1_copy_1_" xmlns="http://www.w3.org/2000/svg" xmlns:xlink="http://www.w3.org/1999/xlink" x="0px"
	 y="0px" width="604px" height="604px" viewBox="0 0 604 604" style="enable-background:new 0 0 604 604;" xml:space="preserve">
<style type="text/css">
	.st0{fill:#282735;}
</style>
<g id="Ellipse_2">
	<g>
		<path class="st0" d="M299.25,91.031c28.7,0,56.542,5.621,82.751,16.707c25.315,10.708,48.051,26.038,67.576,45.564
			s34.854,42.263,45.561,67.581c11.086,26.211,16.706,54.054,16.706,82.757s-5.621,56.546-16.706,82.757
			c-10.707,25.317-26.036,48.055-45.561,67.581s-42.26,34.856-67.576,45.564c-26.209,11.086-54.05,16.707-82.751,16.707
			s-56.542-5.621-82.751-16.707c-25.315-10.708-48.051-26.038-67.576-45.564c-19.525-19.526-34.854-42.263-45.561-67.581
			c-11.086-26.211-16.706-54.054-16.706-82.757s5.621-56.546,16.706-82.757c10.707-25.317,26.036-48.055,45.561-67.581
			c19.525-19.526,42.26-34.856,67.576-45.564C242.708,96.652,270.55,91.031,299.25,91.031 M299.25,90.031
			c-117.965,0-213.594,95.636-213.594,213.609S181.285,517.25,299.25,517.25s213.594-95.636,213.594-213.609
			S417.215,90.031,299.25,90.031L299.25,90.031z"/>
	</g>
</g>
<g id="Ellipse_2_copy">
	<g>
		<path class="st0" d="M302,1c40.635,0,80.054,7.958,117.162,23.654c35.843,15.16,68.033,36.864,95.677,64.507
			c27.644,27.644,49.347,59.834,64.507,95.677C595.042,221.946,603,261.365,603,302s-7.958,80.054-23.654,117.163
			c-15.16,35.843-36.864,68.033-64.507,95.677c-27.644,27.644-59.834,49.347-95.677,64.507C382.054,595.042,342.635,603,302,603
			s-80.054-7.958-117.163-23.654c-35.843-15.16-68.033-36.864-95.677-64.507c-27.644-27.644-49.347-59.834-64.507-95.677
			C8.958,382.054,1,342.635,1,302s7.958-80.054,23.654-117.163c15.16-35.843,36.863-68.033,64.507-95.677
			c27.644-27.644,59.834-49.347,95.677-64.507C221.946,8.958,261.365,1,302,1 M302,0C135.21,0,0,135.21,0,302s135.21,302,302,302
			s302-135.21,302-302S468.79,0,302,0L302,0z"/>
	</g>
</g>
<g id="Ellipse_2_copy_2">
	<g>
		<path class="st0" d="M305.281,177.812c33.764,0,65.508,13.145,89.383,37.014c23.875,23.869,37.023,55.605,37.023,89.361
			s-13.148,65.491-37.023,89.361c-23.875,23.869-55.618,37.014-89.383,37.014s-65.508-13.145-89.383-37.014
			c-23.875-23.869-37.023-55.605-37.023-89.361s13.148-65.491,37.023-89.361C239.773,190.958,271.517,177.812,305.281,177.812
			 M305.281,176.812c-70.365,0-127.406,57.028-127.406,127.375c0,70.347,57.042,127.375,127.406,127.375
			s127.406-57.028,127.406-127.375C432.688,233.84,375.646,176.812,305.281,176.812L305.281,176.812z"/>
	</g>
</g>
</svg>
