<?xml version="1.0" encoding="utf-8"?>
<!-- Generator: Adobe Illustrator 17.0.1, SVG Export Plug-In . SVG Version: 6.00 Build 0)  -->
<!DOCTYPE svg PUBLIC "-//W3C//DTD SVG 1.1//EN" "http://www.w3.org/Graphics/SVG/1.1/DTD/svg11.dtd">
<svg version="1.1" id="_x31_" xmlns="http://www.w3.org/2000/svg" xmlns:xlink="http://www.w3.org/1999/xlink" x="0px" y="0px"
	 width="164.433px" height="32.084px" viewBox="0 0 164.433 32.084" style="enable-background:new 0 0 164.433 32.084;"
	 xml:space="preserve">
<style type="text/css">
	.st0{fill-rule:evenodd;clip-rule:evenodd;fill:#04B6F5;}
	.st1{fill-rule:evenodd;clip-rule:evenodd;fill:#FFFFFF;}
</style>
<g>
	<path class="st0" d="M3.084,29h29.172V3.084H3.084V29L3.084,29z M33.798,32.084H1.542H0v-1.542v-29V0h1.542h32.256h1.542v1.542v29
		v1.542H33.798z"/>
	<path class="st0" d="M13.928,24.75c-4.893,0-8.19-3.577-8.19-8.721c0-5.092,3.295-8.695,8.213-8.695h2.15h3.07h4.58
		c3.447,0,5.718,2.763,5.718,6.002c0,3.081-2.037,5.141-4.152,5.48l4.282,5.934h-3.551c-1.942-2.918-3.585-5.33-5.43-8.285h2.74
		c1.723,0,2.977-1.459,2.977-3.156c0-1.671-1.254-3.286-2.977-3.286h-3.107h-1.082h-0.015h-2.738h-0.317h-2.16h-0.014
		c-3.482,0-5.366,2.663-5.366,6.005c0,3.316,1.977,6.032,5.389,6.032h2.15v-8.134h0.317h2.738h0.015h0.004l-0.002,4.322h-0.003
		v6.501h-0.015h-3.055H13.928z"/>
	<path class="st1" d="M53.599,24.894c5.146,0,8.609-3.389,8.609-8.263c0-4.824-3.463-8.238-8.634-8.238h-6.135v16.501H53.599
		L53.599,24.894z M53.575,22.346h-3.241V10.941h3.266c3.661,0,5.641,2.523,5.641,5.69C59.24,19.773,57.162,22.346,53.575,22.346
		L53.575,22.346z M74.851,24.894v-7.942c0-3.191-2.326-4.305-4.997-4.305c-1.905,0-3.637,0.594-5.022,1.93l1.089,1.806
		c1.014-1.039,2.202-1.534,3.538-1.534c1.633,0,2.796,0.841,2.796,2.227v1.781c-0.89-1.014-2.251-1.534-3.884-1.534
		c-1.954,0-4.132,1.138-4.132,3.909c0,2.622,2.202,3.958,4.132,3.958c1.584,0,2.994-0.569,3.884-1.608v1.311H74.851L74.851,24.894z
		 M69.408,23.41c-1.46,0-2.573-0.841-2.573-2.152c0-1.286,1.113-2.152,2.573-2.152c1.113,0,2.227,0.421,2.845,1.237v1.831
		C71.635,22.99,70.521,23.41,69.408,23.41L69.408,23.41z M81.827,25.191c1.188,0,1.954-0.346,2.424-0.767l-0.618-1.979
		c-0.198,0.223-0.643,0.445-1.138,0.445c-0.742,0-1.138-0.618-1.138-1.435v-6.259h2.424v-2.251h-2.424V9.679h-2.598v3.266H76.78
		v2.251h1.979v6.902C78.759,24.103,79.798,25.191,81.827,25.191L81.827,25.191z M96.028,24.894v-7.942
		c0-3.191-2.326-4.305-4.997-4.305c-1.905,0-3.637,0.594-5.022,1.93l1.089,1.806c1.014-1.039,2.202-1.534,3.538-1.534
		c1.633,0,2.796,0.841,2.796,2.227v1.781c-0.89-1.014-2.251-1.534-3.884-1.534c-1.954,0-4.132,1.138-4.132,3.909
		c0,2.622,2.202,3.958,4.132,3.958c1.583,0,2.994-0.569,3.884-1.608v1.311H96.028L96.028,24.894z M90.585,23.41
		c-1.46,0-2.573-0.841-2.573-2.152c0-1.286,1.113-2.152,2.573-2.152c1.113,0,2.227,0.421,2.845,1.237v1.831
		C92.812,22.99,91.698,23.41,90.585,23.41L90.585,23.41z M111.144,24.894l-4.775-6.927c2.474-0.099,4.577-1.757,4.577-4.75
		c0-3.018-2.177-4.824-5.022-4.824h-6.16v16.501h1.41v-6.828h3.637l4.626,6.828H111.144L111.144,24.894z M105.8,16.78h-4.626v-7.1
		h4.626c2.202,0,3.662,1.46,3.662,3.538C109.461,15.295,108.002,16.78,105.8,16.78L105.8,16.78z M118.961,25.191
		c1.979,0,3.488-0.693,4.676-1.93l-0.668-0.841c-1.014,1.089-2.4,1.658-3.909,1.658c-2.821,0-4.552-2.152-4.676-4.75h9.995v-0.346
		c0-3.464-2.004-6.333-5.641-6.333c-3.315,0-5.74,2.796-5.74,6.259C112.999,22.594,115.473,25.191,118.961,25.191L118.961,25.191z
		 M123.068,18.314h-8.684c0.099-2.078,1.509-4.552,4.33-4.552C121.707,13.762,123.044,16.285,123.068,18.314L123.068,18.314z
		 M136.576,24.894v-8.391c0-2.693-1.93-3.855-4.354-3.855c-1.979,0-3.365,0.668-4.602,2.008l0.717,0.899
		c1.088-1.245,2.251-1.769,3.76-1.769c1.757,0,3.191,0.973,3.191,2.767v2.424c-1.039-1.159-2.4-1.703-4.057-1.703
		c-2.078,0-4.181,1.357-4.181,3.946c0,2.565,2.128,3.971,4.181,3.971c1.657,0,2.993-0.544,4.057-1.703v1.406H136.576L136.576,24.894
		z M131.678,24.177c-1.954,0-3.266-1.258-3.266-2.932c0-1.699,1.311-2.957,3.266-2.957c1.435,0,2.771,0.54,3.612,1.649v2.614
		C134.448,23.637,133.112,24.177,131.678,24.177L131.678,24.177z M150.702,24.894V8.393h-1.311v6.482
		c-0.94-1.361-2.449-2.227-4.156-2.227c-3.167,0-5.319,2.499-5.319,6.284c0,3.835,2.152,6.259,5.319,6.259
		c1.781,0,3.315-0.965,4.156-2.202v1.905H150.702L150.702,24.894z M145.458,24.028c-2.647,0-4.181-2.202-4.181-5.096
		c0-2.894,1.534-5.121,4.181-5.121c1.682,0,3.241,1.015,3.934,2.177v5.913C148.698,23.039,147.14,24.028,145.458,24.028
		L145.458,24.028z M153.919,29.57c0.322,0.099,0.866,0.173,1.286,0.173c1.385,0,2.4-0.717,3.043-2.227l6.185-14.572h-1.46
		l-4.305,10.44l-4.354-10.44h-1.435l5.072,12.048l-0.94,2.128c-0.495,1.138-1.039,1.46-1.831,1.46c-0.297,0-0.767-0.074-1.039-0.198
		L153.919,29.57z"/>
</g>
</svg>
