<svg xmlns="http://www.w3.org/2000/svg" xmlns:xlink="http://www.w3.org/1999/xlink" preserveAspectRatio="xMidYMid" width="6" height="11" viewBox="0 0 6 11">
  <defs>
    <style>

      .cls-2 {
        fill: #ffffff;
      }
    </style>
  </defs>
  <path d="M5.509,5.134 C5.509,5.134 0.663,9.551 0.663,9.551 C0.504,9.709 0.246,9.709 0.087,9.551 C-0.072,9.393 -0.072,9.136 0.087,8.978 C0.087,8.978 4.641,4.827 4.641,4.827 C4.641,4.827 0.087,0.676 0.087,0.676 C-0.072,0.518 -0.072,0.262 0.087,0.103 C0.246,-0.055 0.504,-0.055 0.663,0.103 C0.663,0.103 5.509,4.520 5.509,4.520 C5.594,4.605 5.630,4.717 5.625,4.827 C5.630,4.938 5.594,5.050 5.509,5.134 Z" id="path-1" class="cls-2" fill-rule="evenodd"/>
</svg>
