<svg xmlns="http://www.w3.org/2000/svg" xmlns:xlink="http://www.w3.org/1999/xlink" preserveAspectRatio="xMidYMid" width="10" height="6" viewBox="0 0 10 6">
  <defs>
    <style>

      .cls-2 {
        fill: #686868;
      }
    </style>
  </defs>
  <path d="M4.522,5.510 C4.522,5.510 0.106,0.663 0.106,0.663 C-0.053,0.504 -0.053,0.246 0.106,0.087 C0.264,-0.072 0.520,-0.072 0.679,0.087 C0.679,0.087 4.829,4.642 4.829,4.642 C4.829,4.642 8.980,0.087 8.980,0.087 C9.138,-0.072 9.395,-0.072 9.553,0.087 C9.711,0.246 9.711,0.504 9.553,0.663 C9.553,0.663 5.136,5.510 5.136,5.510 C5.052,5.594 4.940,5.631 4.829,5.625 C4.719,5.631 4.607,5.594 4.522,5.510 Z" id="path-1" class="cls-2" fill-rule="evenodd"/>
</svg>
