<svg xmlns="http://www.w3.org/2000/svg" xmlns:xlink="http://www.w3.org/1999/xlink" preserveAspectRatio="xMidYMid" width="70" height="70" viewBox="0 0 70 70">
  <defs>
    <style>

      .cls-2 {
        fill: #999999;
        opacity: 0.4;
      }
    </style>
  </defs>
  <path d="M34.556,69.112 C15.469,69.112 -0.005,53.639 -0.005,34.552 C-0.005,15.465 15.469,-0.009 34.556,-0.009 C53.643,-0.009 69.116,15.465 69.116,34.552 C69.116,53.639 53.643,69.112 34.556,69.112 ZM34.552,23.235 C34.552,23.235 23.871,33.915 23.871,33.915 C23.871,33.915 25.740,35.784 25.740,35.784 C25.740,35.784 33.216,28.308 33.216,28.308 C33.216,28.308 33.216,44.596 33.216,44.596 C33.216,44.596 35.887,44.596 35.887,44.596 C35.887,44.596 35.887,28.308 35.887,28.308 C35.887,28.308 43.363,35.784 43.363,35.784 C43.363,35.784 45.232,33.915 45.232,33.915 C45.232,33.915 34.552,23.235 34.552,23.235 Z" id="path-1" class="cls-2" fill-rule="evenodd"/>
</svg>
