<svg xmlns="http://www.w3.org/2000/svg" xmlns:xlink="http://www.w3.org/1999/xlink" preserveAspectRatio="xMidYMid" width="25" height="26" viewBox="0 0 25 26">
  <defs>
    <style>

      .cls-2 {
        fill: #c1c1c1;
      }
    </style>
  </defs>
  <path d="M0.238,24.665 C0.410,24.837 0.624,24.923 0.860,24.923 C1.096,24.923 1.311,24.837 1.482,24.665 C1.482,24.665 12.444,13.705 12.444,13.705 C12.444,13.705 23.406,24.665 23.406,24.665 C23.578,24.837 23.792,24.923 24.028,24.923 C24.243,24.923 24.479,24.837 24.651,24.665 C24.994,24.322 24.994,23.764 24.651,23.421 C24.651,23.421 13.689,12.461 13.689,12.461 C13.689,12.461 24.651,1.501 24.651,1.501 C24.994,1.158 24.994,0.600 24.651,0.257 C24.307,-0.086 23.749,-0.086 23.406,0.257 C23.406,0.257 12.444,11.217 12.444,11.217 C12.444,11.217 1.482,0.257 1.482,0.257 C1.139,-0.086 0.581,-0.086 0.238,0.257 C-0.105,0.600 -0.105,1.158 0.238,1.501 C0.238,1.501 11.200,12.461 11.200,12.461 C11.200,12.461 0.238,23.421 0.238,23.421 C-0.105,23.764 -0.105,24.322 0.238,24.665 Z" id="path-1" class="cls-2" fill-rule="evenodd"/>
</svg>
