<svg xmlns="http://www.w3.org/2000/svg" xmlns:xlink="http://www.w3.org/1999/xlink" preserveAspectRatio="xMidYMid" width="49" height="32" viewBox="0 0 49 32">
  <defs>
    <style>

      .cls-2 {
        fill: #333333;
      }
    </style>
  </defs>
  <path d="M47.360,28.533 C47.360,28.533 43.667,28.533 43.667,28.533 C43.158,30.235 41.579,31.481 39.713,31.481 C37.847,31.481 36.268,30.235 35.760,28.533 C35.760,28.533 33.253,28.533 33.253,28.533 C33.253,28.533 12.592,28.533 12.592,28.533 C12.083,30.235 10.504,31.481 8.638,31.481 C6.773,31.481 5.193,30.235 4.685,28.533 C4.685,28.533 1.174,28.533 1.174,28.533 C0.523,28.533 -0.004,28.005 -0.004,27.355 C-0.004,27.355 -0.004,1.170 -0.004,1.170 C-0.004,0.520 0.523,-0.008 1.174,-0.008 C1.174,-0.008 33.253,-0.008 33.253,-0.008 C33.903,-0.008 34.430,0.520 34.430,1.170 C34.430,1.170 34.430,10.908 34.430,10.908 C34.430,10.908 40.918,10.908 40.918,10.908 C42.739,10.908 44.414,11.900 45.290,13.497 C45.290,13.497 48.392,19.154 48.392,19.154 C48.487,19.328 48.537,19.522 48.537,19.720 C48.537,19.720 48.537,27.355 48.537,27.355 C48.537,28.005 48.010,28.533 47.360,28.533 ZM8.638,29.126 C9.614,29.126 10.409,28.331 10.409,27.355 C10.409,26.379 9.614,25.584 8.638,25.584 C7.662,25.584 6.868,26.379 6.868,27.355 C6.868,28.331 7.662,29.126 8.638,29.126 ZM32.075,2.348 C32.075,2.348 2.351,2.348 2.351,2.348 C2.351,2.348 2.351,26.177 2.351,26.177 C2.351,26.177 4.685,26.177 4.685,26.177 C5.193,24.474 6.773,23.228 8.638,23.228 C10.504,23.228 12.083,24.474 12.592,26.177 C12.592,26.177 32.075,26.177 32.075,26.177 C32.075,26.177 32.075,2.348 32.075,2.348 ZM39.713,29.126 C40.689,29.126 41.484,28.331 41.484,27.355 C41.484,26.379 40.689,25.584 39.713,25.584 C38.737,25.584 37.943,26.379 37.943,27.355 C37.943,28.331 38.737,29.126 39.713,29.126 ZM46.182,20.022 C46.182,20.022 43.225,14.630 43.225,14.630 C42.762,13.787 41.879,13.264 40.918,13.264 C40.918,13.264 34.430,13.264 34.430,13.264 C34.430,13.264 34.430,26.177 34.430,26.177 C34.430,26.177 35.760,26.177 35.760,26.177 C36.268,24.474 37.848,23.229 39.713,23.229 C41.579,23.229 43.159,24.474 43.667,26.177 C43.667,26.177 46.182,26.177 46.182,26.177 C46.182,26.177 46.182,20.022 46.182,20.022 ZM11.509,21.705 C11.509,21.705 8.235,18.430 8.235,18.430 C7.928,18.123 7.758,17.713 7.758,17.278 C7.758,16.842 7.928,16.433 8.235,16.125 C8.235,16.125 11.510,12.850 11.510,12.850 C11.969,12.390 12.715,12.390 13.175,12.850 C13.635,13.310 13.635,14.056 13.175,14.516 C13.175,14.516 11.591,16.100 11.591,16.100 C11.591,16.100 19.972,16.100 19.972,16.100 C20.622,16.100 21.150,16.627 21.150,17.277 C21.150,17.928 20.622,18.455 19.972,18.455 C19.972,18.455 11.591,18.455 11.591,18.455 C11.591,18.455 13.175,20.039 13.175,20.039 C13.635,20.499 13.635,21.245 13.175,21.705 C12.945,21.935 12.643,22.050 12.342,22.050 C12.041,22.050 11.739,21.935 11.509,21.705 ZM21.251,14.009 C21.251,14.009 22.835,12.426 22.835,12.426 C22.835,12.426 14.454,12.426 14.454,12.426 C13.804,12.426 13.276,11.898 13.276,11.248 C13.276,10.597 13.804,10.070 14.454,10.070 C14.454,10.070 22.835,10.070 22.835,10.070 C22.835,10.070 21.251,8.486 21.251,8.486 C20.792,8.026 20.792,7.280 21.251,6.820 C21.711,6.360 22.457,6.360 22.917,6.820 C22.917,6.820 26.191,10.095 26.191,10.095 C26.826,10.731 26.826,11.765 26.191,12.400 C26.191,12.400 22.917,15.675 22.917,15.675 C22.687,15.905 22.385,16.020 22.084,16.020 C21.783,16.020 21.481,15.905 21.251,15.675 C20.792,15.215 20.792,14.469 21.251,14.009 Z" id="path-1" class="cls-2" fill-rule="evenodd"/>
</svg>
