<svg xmlns="http://www.w3.org/2000/svg" xmlns:xlink="http://www.w3.org/1999/xlink" preserveAspectRatio="xMidYMid" width="17" height="28" viewBox="0 0 17 28">
  <defs>
    <style>

      .cls-2 {
        fill: #ffffff;
        filter: url(#color-overlay-1);
      }
    </style>

    <filter id="color-overlay-1" filterUnits="userSpaceOnUse">
      <feFlood flood-color="#888888" flood-opacity="1"/>
      <feComposite operator="in" in2="SourceGraphic"/>
      <feBlend mode="normal" in2="SourceGraphic" result="colorOverlay"/>
    </filter>
  </defs>
  <path d="M0.012,9.978 C0.012,9.978 0.012,9.978 0.012,9.978 C0.012,9.978 0.012,15.363 0.012,15.363 C0.012,15.363 4.247,15.363 4.247,15.363 C4.247,15.363 4.247,27.887 4.247,27.887 C4.247,27.887 11.092,27.887 11.092,27.887 C11.092,27.887 11.092,15.363 11.092,15.363 C11.092,15.363 16.751,15.363 16.751,15.363 C16.751,15.363 16.751,9.978 16.751,9.978 C16.751,9.978 11.092,9.978 11.092,9.978 C11.092,9.978 11.092,7.398 11.092,7.398 C11.092,6.478 11.645,5.741 12.151,5.741 C12.151,5.741 16.751,5.741 16.751,5.741 C16.751,5.741 16.751,-0.008 16.751,-0.008 C16.751,-0.008 11.238,-0.008 11.238,-0.008 C7.694,-0.008 4.247,2.849 4.247,6.760 C4.247,6.760 4.247,9.978 4.247,9.978 C4.247,9.978 0.012,9.978 0.012,9.978 Z" id="path-1" class="cls-2" fill-rule="evenodd"/>
</svg>
