<svg xmlns="http://www.w3.org/2000/svg" xmlns:xlink="http://www.w3.org/1999/xlink" preserveAspectRatio="xMidYMid" width="52" height="40" viewBox="0 0 52 40">
  <defs>
    <style>

      .cls-2 {
        fill: #333333;
      }
    </style>
  </defs>
  <path d="M48.929,28.403 C48.929,28.403 29.285,16.892 29.285,16.892 C29.285,16.892 29.285,13.587 29.285,13.587 C29.285,12.152 28.191,10.969 26.793,10.823 C26.793,10.823 26.793,9.496 26.793,9.496 C28.924,8.999 30.517,7.085 30.517,4.807 C30.517,2.153 28.355,-0.006 25.698,-0.006 C23.041,-0.006 20.880,2.153 20.880,4.807 C20.880,5.411 21.370,5.901 21.975,5.901 C22.580,5.901 23.070,5.411 23.070,4.807 C23.070,3.360 24.249,2.182 25.698,2.182 C27.147,2.182 28.326,3.360 28.326,4.807 C28.326,6.255 27.147,7.433 25.698,7.433 C25.093,7.433 24.603,7.923 24.603,8.527 C24.603,8.527 24.603,10.823 24.603,10.823 C23.205,10.969 22.112,12.152 22.112,13.587 C22.112,13.587 22.112,16.892 22.112,16.892 C22.112,16.892 2.467,28.403 2.467,28.403 C0.941,29.297 -0.007,30.951 -0.007,32.718 C-0.007,35.476 2.239,37.720 5.000,37.720 C5.000,37.720 11.134,37.720 11.134,37.720 C11.134,37.720 11.134,39.306 11.134,39.306 C11.134,39.910 11.624,40.400 12.229,40.400 C12.834,40.400 13.324,39.910 13.324,39.306 C13.324,39.306 13.324,37.720 13.324,37.720 C13.324,37.720 38.072,37.720 38.072,37.720 C38.072,37.720 38.072,39.306 38.072,39.306 C38.072,39.910 38.563,40.400 39.168,40.400 C39.772,40.400 40.263,39.910 40.263,39.306 C40.263,39.306 40.263,37.720 40.263,37.720 C40.263,37.720 46.396,37.720 46.396,37.720 C49.157,37.720 51.403,35.476 51.403,32.718 C51.403,30.951 50.455,29.297 48.929,28.403 ZM24.894,12.996 C24.894,12.996 26.503,12.996 26.503,12.996 C26.829,12.996 27.094,13.261 27.094,13.587 C27.094,13.587 27.094,15.880 27.094,15.880 C26.178,15.651 25.218,15.651 24.302,15.880 C24.302,15.880 24.302,13.587 24.302,13.587 C24.302,13.261 24.567,12.996 24.894,12.996 ZM13.324,35.532 C13.324,35.532 13.324,33.891 13.324,33.891 C13.324,33.891 38.072,33.891 38.072,33.891 C38.072,33.891 38.072,35.532 38.072,35.532 C38.072,35.532 13.324,35.532 13.324,35.532 ZM8.740,31.703 C8.740,31.703 25.698,21.766 25.698,21.766 C25.698,21.766 42.656,31.703 42.656,31.703 C42.656,31.703 8.740,31.703 8.740,31.703 ZM46.396,35.532 C46.396,35.532 40.263,35.532 40.263,35.532 C40.263,35.532 40.263,33.891 40.263,33.891 C40.263,33.891 46.396,33.891 46.396,33.891 C47.044,33.891 47.571,33.365 47.571,32.718 C47.571,32.304 47.349,31.916 46.991,31.706 C46.991,31.706 26.252,19.554 26.252,19.554 C25.910,19.354 25.486,19.354 25.144,19.554 C25.144,19.554 4.406,31.706 4.406,31.706 C4.048,31.916 3.826,32.303 3.826,32.718 C3.826,33.365 4.353,33.891 5.000,33.891 C5.000,33.891 11.134,33.891 11.134,33.891 C11.134,33.891 11.134,35.532 11.134,35.532 C11.134,35.532 5.000,35.532 5.000,35.532 C3.447,35.532 2.183,34.270 2.183,32.718 C2.183,31.724 2.716,30.794 3.575,30.290 C3.575,30.290 23.898,18.382 23.898,18.382 C24.453,18.057 25.076,17.894 25.698,17.894 C26.321,17.894 26.943,18.057 27.498,18.382 C27.498,18.382 47.822,30.290 47.822,30.290 C47.822,30.290 47.822,30.290 47.822,30.290 C48.680,30.794 49.213,31.724 49.213,32.718 C49.213,34.270 47.950,35.532 46.396,35.532 Z" id="path-1" class="cls-2" fill-rule="evenodd"/>
</svg>
