<svg xmlns="http://www.w3.org/2000/svg" xmlns:xlink="http://www.w3.org/1999/xlink" preserveAspectRatio="xMidYMid" width="27" height="26" viewBox="0 0 27 26">
  <defs>
    <style>

      .cls-2 {
        fill: #ffffff;
        filter: url(#color-overlay-1);
      }
    </style>

    <filter id="color-overlay-1" filterUnits="userSpaceOnUse">
      <feFlood flood-color="#888888" flood-opacity="1"/>
      <feComposite operator="in" in2="SourceGraphic"/>
      <feBlend mode="normal" in2="SourceGraphic" result="colorOverlay"/>
    </filter>
  </defs>
  <path d="M23.370,25.972 C23.370,25.972 2.583,25.972 2.583,25.972 C1.148,25.972 -0.015,24.809 -0.015,23.374 C-0.015,23.374 -0.015,2.588 -0.015,2.588 C-0.015,1.152 1.148,-0.011 2.583,-0.011 C2.583,-0.011 23.370,-0.011 23.370,-0.011 C24.805,-0.011 25.968,1.152 25.968,2.588 C25.968,2.588 25.968,23.374 25.968,23.374 C25.968,24.809 24.805,25.972 23.370,25.972 ZM4.630,11.249 C4.630,11.249 2.583,11.249 2.583,11.249 C2.583,11.249 2.583,21.642 2.583,21.642 C2.583,22.598 3.359,23.374 4.316,23.374 C4.316,23.374 21.638,23.374 21.638,23.374 C22.594,23.374 23.370,22.598 23.370,21.642 C23.370,21.642 23.370,11.249 23.370,11.249 C23.370,11.249 21.077,11.249 21.077,11.249 C21.202,11.826 21.272,12.423 21.272,13.038 C21.272,17.688 17.503,21.457 12.853,21.457 C8.204,21.457 4.435,17.688 4.435,13.038 C4.435,12.423 4.505,11.826 4.630,11.249 ZM12.854,8.578 C10.391,8.578 8.395,10.574 8.395,13.037 C8.395,15.499 10.391,17.496 12.854,17.496 C15.317,17.496 17.313,15.499 17.313,13.037 C17.313,10.574 15.317,8.578 12.854,8.578 ZM20.528,2.315 C18.800,2.315 17.398,3.717 17.398,5.446 C17.398,7.174 18.800,8.575 20.528,8.575 C22.257,8.575 23.658,7.174 23.658,5.446 C23.658,3.717 22.257,2.315 20.528,2.315 Z" id="path-1" class="cls-2" fill-rule="evenodd"/>
</svg>
