<svg xmlns="http://www.w3.org/2000/svg" xmlns:xlink="http://www.w3.org/1999/xlink" preserveAspectRatio="xMidYMid" width="17" height="17" viewBox="0 0 17 17">
  <defs>
    <style>

      .cls-2 {
        fill: #333333;
      }
    </style>
  </defs>
  <path d="M16.439,8.722 C16.439,8.722 8.780,8.722 8.780,8.722 C8.780,8.722 8.780,16.416 8.780,16.416 C8.780,16.416 7.676,16.416 7.676,16.416 C7.676,16.416 7.676,8.722 7.676,8.722 C7.676,8.722 -0.007,8.722 -0.007,8.722 C-0.007,8.722 -0.007,7.619 -0.007,7.619 C-0.007,7.619 7.676,7.619 7.676,7.619 C7.676,7.619 7.676,-0.012 7.676,-0.012 C7.676,-0.012 8.780,-0.012 8.780,-0.012 C8.780,-0.012 8.780,7.619 8.780,7.619 C8.780,7.619 16.439,7.619 16.439,7.619 C16.439,7.619 16.439,8.722 16.439,8.722 Z" id="path-1" class="cls-2" fill-rule="evenodd"/>
</svg>
