<svg xmlns="http://www.w3.org/2000/svg" xmlns:xlink="http://www.w3.org/1999/xlink" preserveAspectRatio="xMidYMid" width="14" height="14" viewBox="0 0 14 14">
  <defs>
    <style>

      .cls-2 {
        fill: #ffffff;
      }
    </style>
  </defs>
  <path d="M13.521,0.880 C13.521,0.880 12.836,4.330 12.836,4.330 C12.804,4.490 12.710,4.631 12.574,4.722 C12.472,4.790 12.353,4.825 12.232,4.825 C12.192,4.825 12.152,4.821 12.112,4.814 C12.112,4.814 8.666,4.127 8.666,4.127 C8.333,4.061 8.117,3.737 8.183,3.403 C8.249,3.069 8.573,2.853 8.906,2.919 C8.906,2.919 11.008,3.338 11.008,3.338 C10.010,2.037 8.451,1.244 6.765,1.244 C4.638,1.244 2.713,2.505 1.861,4.456 C1.760,4.688 1.534,4.826 1.297,4.826 C1.214,4.826 1.131,4.809 1.050,4.774 C0.739,4.638 0.597,4.275 0.733,3.963 C1.781,1.563 4.148,0.012 6.765,0.012 C8.813,0.012 10.709,0.963 11.939,2.529 C11.939,2.529 12.314,0.640 12.314,0.640 C12.381,0.306 12.705,0.090 13.038,0.156 C13.371,0.222 13.588,0.547 13.521,0.880 ZM1.417,8.382 C1.417,8.382 4.863,9.068 4.863,9.068 C5.196,9.134 5.413,9.459 5.346,9.792 C5.280,10.126 4.956,10.343 4.623,10.276 C4.623,10.276 2.521,9.857 2.521,9.857 C3.520,11.159 5.078,11.952 6.765,11.952 C8.892,11.952 10.817,10.691 11.669,8.740 C11.805,8.428 12.167,8.285 12.479,8.422 C12.790,8.558 12.932,8.921 12.796,9.233 C11.749,11.633 9.381,13.184 6.765,13.184 C4.716,13.184 2.820,12.232 1.590,10.667 C1.590,10.667 1.215,12.555 1.215,12.555 C1.157,12.848 0.900,13.051 0.612,13.051 C0.572,13.051 0.532,13.048 0.491,13.039 C0.158,12.973 -0.058,12.649 0.008,12.315 C0.008,12.315 0.693,8.866 0.693,8.866 C0.760,8.532 1.084,8.315 1.417,8.382 Z" id="path-1" class="cls-2" fill-rule="evenodd"/>
</svg>
