<svg xmlns="http://www.w3.org/2000/svg" xmlns:xlink="http://www.w3.org/1999/xlink" preserveAspectRatio="xMidYMid" width="41" height="41" viewBox="0 0 41 41">
  <defs>
    <style>

      .cls-2 {
        fill: #333333;
      }
    </style>
  </defs>
  <path d="M40.434,30.001 C40.434,35.747 35.759,40.422 30.012,40.422 C25.831,40.422 22.218,37.947 20.560,34.385 C19.504,34.582 18.427,34.684 17.348,34.684 C7.782,34.684 0.000,26.901 0.000,17.336 C0.000,7.771 7.782,-0.011 17.348,-0.011 C26.913,-0.011 34.695,7.771 34.695,17.336 C34.695,18.415 34.593,19.492 34.396,20.548 C37.958,22.206 40.434,25.820 40.434,30.001 ZM17.348,1.833 C8.799,1.833 1.844,8.787 1.844,17.336 C1.844,25.885 8.799,32.840 17.348,32.840 C18.213,32.840 19.077,32.767 19.926,32.625 C19.780,32.062 19.679,31.481 19.629,30.886 C18.879,31.011 18.115,31.076 17.348,31.076 C9.772,31.076 3.608,24.912 3.608,17.336 C3.608,9.759 9.772,3.595 17.348,3.595 C24.924,3.595 31.088,9.759 31.088,17.336 C31.088,18.102 31.023,18.865 30.897,19.617 C31.492,19.668 32.073,19.768 32.636,19.914 C32.778,19.065 32.851,18.201 32.851,17.336 C32.851,8.787 25.896,1.833 17.348,1.833 ZM29.023,19.627 C29.169,18.874 29.244,18.107 29.244,17.336 C29.244,10.776 23.907,5.439 17.348,5.439 C10.788,5.439 5.452,10.776 5.452,17.336 C5.452,23.895 10.788,29.232 17.348,29.232 C18.121,29.232 18.888,29.157 19.638,29.011 C20.108,24.053 24.065,20.096 29.023,19.627 ZM30.012,21.423 C25.283,21.423 21.435,25.272 21.435,30.001 C21.435,34.730 25.283,38.578 30.012,38.578 C34.742,38.578 38.590,34.731 38.590,30.001 C38.590,25.272 34.742,21.423 30.012,21.423 ZM30.012,37.409 C25.928,37.409 22.604,34.086 22.604,30.001 C22.604,25.916 25.928,22.593 30.012,22.593 C34.097,22.593 37.420,25.916 37.420,30.001 C37.420,34.086 34.097,37.409 30.012,37.409 ZM30.012,24.437 C26.944,24.437 24.448,26.933 24.448,30.001 C24.448,33.069 26.944,35.565 30.012,35.565 C33.081,35.565 35.577,33.069 35.577,30.001 C35.577,26.933 33.080,24.437 30.012,24.437 ZM32.217,30.922 C31.975,30.922 31.737,30.825 31.566,30.653 C31.394,30.481 31.295,30.244 31.295,30.001 C31.295,29.758 31.394,29.520 31.566,29.349 C31.737,29.177 31.975,29.079 32.217,29.079 C32.460,29.079 32.697,29.177 32.869,29.349 C33.041,29.520 33.139,29.758 33.139,30.001 C33.139,30.244 33.041,30.481 32.869,30.653 C32.698,30.825 32.460,30.922 32.217,30.922 ZM27.808,30.922 C27.564,30.922 27.327,30.825 27.156,30.653 C26.984,30.481 26.886,30.244 26.886,30.001 C26.886,29.758 26.984,29.520 27.156,29.349 C27.327,29.177 27.565,29.078 27.808,29.078 C28.050,29.078 28.287,29.177 28.459,29.349 C28.631,29.520 28.730,29.758 28.730,30.001 C28.730,30.244 28.631,30.481 28.459,30.653 C28.288,30.825 28.050,30.922 27.808,30.922 ZM17.348,25.392 C15.765,25.392 14.478,24.105 14.478,22.522 C14.478,20.940 15.765,19.653 17.348,19.653 C18.930,19.653 20.217,20.940 20.217,22.522 C20.217,24.105 18.930,25.392 17.348,25.392 ZM17.348,21.497 C16.782,21.497 16.322,21.957 16.322,22.522 C16.322,23.088 16.782,23.548 17.348,23.548 C17.913,23.548 18.373,23.088 18.373,22.522 C18.373,21.957 17.913,21.497 17.348,21.497 ZM22.534,14.467 C24.116,14.467 25.403,15.754 25.403,17.336 C25.403,18.918 24.116,20.205 22.534,20.205 C20.952,20.205 19.665,18.918 19.665,17.336 C19.665,15.754 20.952,14.467 22.534,14.467 ZM22.534,18.361 C23.099,18.361 23.559,17.902 23.559,17.336 C23.559,16.771 23.099,16.310 22.534,16.310 C21.968,16.310 21.508,16.771 21.508,17.336 C21.508,17.901 21.968,18.361 22.534,18.361 ZM17.348,15.019 C15.765,15.019 14.478,13.732 14.478,12.150 C14.478,10.567 15.765,9.280 17.348,9.280 C18.930,9.280 20.217,10.567 20.217,12.150 C20.217,13.732 18.930,15.019 17.348,15.019 ZM17.348,11.124 C16.782,11.124 16.322,11.584 16.322,12.150 C16.322,12.715 16.782,13.175 17.348,13.175 C17.913,13.175 18.373,12.715 18.373,12.150 C18.373,11.584 17.913,11.124 17.348,11.124 ZM12.161,20.205 C10.579,20.205 9.292,18.918 9.292,17.336 C9.292,15.754 10.579,14.467 12.161,14.467 C13.744,14.467 15.031,15.754 15.031,17.336 C15.031,18.918 13.744,20.205 12.161,20.205 ZM12.161,16.310 C11.596,16.310 11.136,16.771 11.136,17.336 C11.136,17.901 11.596,18.361 12.161,18.361 C12.727,18.361 13.187,17.902 13.187,17.336 C13.187,16.771 12.727,16.310 12.161,16.310 Z" id="path-1" class="cls-2" fill-rule="evenodd"/>
</svg>
