<svg xmlns="http://www.w3.org/2000/svg" xmlns:xlink="http://www.w3.org/1999/xlink" preserveAspectRatio="xMidYMid" width="33" height="24" viewBox="0 0 33 24">
  <defs>
    <style>

      .cls-2 {
        fill: #ffffff;
        filter: url(#color-overlay-1);
      }
    </style>

    <filter id="color-overlay-1" filterUnits="userSpaceOnUse">
      <feFlood flood-color="#888888" flood-opacity="1"/>
      <feComposite operator="in" in2="SourceGraphic"/>
      <feBlend mode="normal" in2="SourceGraphic" result="colorOverlay"/>
    </filter>
  </defs>
  <path d="M29.819,9.631 C31.083,9.034 32.313,6.903 32.313,6.903 C32.379,6.205 31.914,6.504 31.914,6.504 C31.481,6.556 29.769,7.645 29.769,7.645 C28.639,8.743 28.289,7.684 28.289,7.684 C28.289,3.228 22.204,2.694 22.204,2.694 C21.772,2.626 21.672,2.161 22.171,2.128 C22.670,2.094 24.143,0.688 24.143,0.688 C24.575,-0.243 23.145,0.322 23.145,0.322 C22.746,0.622 22.414,0.123 22.414,0.123 C22.081,-0.210 21.074,0.189 21.074,0.189 C20.841,0.555 19.677,0.322 19.677,0.322 C16.052,0.953 13.811,10.592 13.811,10.592 C13.744,11.324 13.179,10.559 13.179,10.559 C10.086,6.802 8.737,7.681 8.737,7.681 C8.304,8.113 9.202,8.645 9.202,8.645 C9.501,8.978 9.169,9.045 9.169,9.045 C8.105,8.579 7.872,9.144 7.872,9.144 C7.739,9.277 8.404,9.951 8.804,10.250 C9.202,10.549 8.770,10.705 8.770,10.705 C8.138,10.539 6.442,10.430 6.442,10.430 C5.777,10.496 6.609,11.229 6.609,11.229 C7.140,11.560 6.055,12.508 6.055,12.508 C5.091,12.341 5.124,13.074 5.124,13.074 C4.592,14.370 12.096,16.703 12.096,16.703 C12.860,17.103 12.295,17.925 12.295,17.925 C9.995,20.930 6.509,19.996 6.509,19.996 C4.680,19.996 0.279,18.234 0.279,18.234 C-0.486,18.067 0.479,19.098 0.479,19.098 C5.466,24.950 13.093,24.333 13.093,24.333 C28.322,24.333 28.688,12.613 28.688,12.613 C28.688,12.247 29.087,12.148 29.087,12.148 C29.686,12.148 32.416,10.376 32.416,10.376 C33.015,9.245 31.718,9.877 31.718,9.877 C31.219,10.177 30.152,10.397 30.152,10.397 C29.054,10.596 29.819,9.631 29.819,9.631 Z" id="path-1" class="cls-2" fill-rule="evenodd"/>
</svg>
